<svg width="60" height="24" viewBox="0 0 60 24" fill="none" xmlns="http://www.w3.org/2000/svg">
<g clip-path="url(#clip0_13_554)">
<path d="M5 18H15C16.1046 18 17 17.1046 17 16V8.57143V8C17 6.89543 16.1046 6 15 6H5C3.89543 6 3 6.89543 3 8V16C3 17.1046 3.89543 18 5 18Z" stroke="#FF0000" stroke-linecap="round" stroke-linejoin="round"/>
<path d="M6.5 10C6.77614 10 7 9.77614 7 9.5C7 9.22386 6.77614 9 6.5 9C6.22386 9 6 9.22386 6 9.5C6 9.77614 6.22386 10 6.5 10Z" stroke="#FF0000" stroke-linejoin="round"/>
<path d="M17 10L21 7V17L17 14" stroke="#FF0000" stroke-linejoin="round"/>
</g>
<path d="M32.024 16.528H35.784V18H30.2V6.88H32.024V16.528ZM38.2374 8.016C37.9067 8.016 37.6294 7.904 37.4054 7.68C37.1814 7.456 37.0694 7.17867 37.0694 6.848C37.0694 6.51733 37.1814 6.24 37.4054 6.016C37.6294 5.792 37.9067 5.68 38.2374 5.68C38.5574 5.68 38.8294 5.792 39.0534 6.016C39.2774 6.24 39.3894 6.51733 39.3894 6.848C39.3894 7.17867 39.2774 7.456 39.0534 7.68C38.8294 7.904 38.5574 8.016 38.2374 8.016ZM39.1334 9.184V18H37.3094V9.184H39.1334ZM44.9361 16.368L47.4321 9.184H49.3681L46.0081 18H43.8321L40.4881 9.184H42.4401L44.9361 16.368ZM58.8269 13.376C58.8269 13.7067 58.8055 14.0053 58.7629 14.272H52.0269C52.0802 14.976 52.3415 15.5413 52.8109 15.968C53.2802 16.3947 53.8562 16.608 54.5389 16.608C55.5202 16.608 56.2135 16.1973 56.6189 15.376H58.5869C58.3202 16.1867 57.8349 16.8533 57.1309 17.376C56.4375 17.888 55.5735 18.144 54.5389 18.144C53.6962 18.144 52.9389 17.9573 52.2669 17.584C51.6055 17.2 51.0829 16.6667 50.6989 15.984C50.3255 15.2907 50.1389 14.4907 50.1389 13.584C50.1389 12.6773 50.3202 11.8827 50.6829 11.2C51.0562 10.5067 51.5735 9.97333 52.2349 9.6C52.9069 9.22667 53.6749 9.04 54.5389 9.04C55.3709 9.04 56.1122 9.22133 56.7629 9.584C57.4135 9.94667 57.9202 10.4587 58.2829 11.12C58.6455 11.7707 58.8269 12.5227 58.8269 13.376ZM56.9229 12.8C56.9122 12.128 56.6722 11.5893 56.2029 11.184C55.7335 10.7787 55.1522 10.576 54.4589 10.576C53.8295 10.576 53.2909 10.7787 52.8429 11.184C52.3949 11.5787 52.1282 12.1173 52.0429 12.8H56.9229Z" fill="#FF0000"/>
<defs>
<clipPath id="clip0_13_554">
<rect width="24" height="24" fill="white"/>
</clipPath>
</defs>
</svg>
