<svg width="21" height="20" viewBox="0 0 21 20" fill="none" xmlns="http://www.w3.org/2000/svg">
<path d="M3.51999 12.5C4.67393 13.6556 6.21063 14.3493 7.84057 14.4505C9.47051 14.5516 11.0812 14.0532 12.3692 13.0492L16.8008 17.4809C16.958 17.6327 17.1685 17.7167 17.387 17.7148C17.6055 17.7129 17.8145 17.6252 17.969 17.4707C18.1235 17.3162 18.2112 17.1072 18.2131 16.8887C18.2149 16.6702 18.131 16.4597 17.9792 16.3025L13.5475 11.8709C14.5961 10.5252 15.0918 8.83015 14.9336 7.1315C14.7755 5.43285 13.9753 3.85852 12.6962 2.72958C11.4172 1.60064 9.75568 1.00212 8.05054 1.05609C6.3454 1.11006 4.72506 1.81246 3.51999 3.02003C2.89732 3.64238 2.40337 4.38132 2.06637 5.19462C1.72937 6.00793 1.55591 6.87966 1.55591 7.76003C1.55591 8.64039 1.72937 9.51213 2.06637 10.3254C2.40337 11.1387 2.89732 11.8777 3.51999 12.5ZM4.69832 4.20003C5.52213 3.37623 6.60609 2.86356 7.76551 2.74936C8.92493 2.63515 10.0881 2.92648 11.0568 3.57371C12.0255 4.22094 12.7398 5.18402 13.0781 6.29887C13.4163 7.41372 13.3576 8.61136 12.9118 9.68774C12.466 10.7641 11.6608 11.6526 10.6334 12.2019C9.60601 12.7512 8.41993 12.9273 7.27726 12.7001C6.13458 12.473 5.10602 11.8566 4.36682 10.9561C3.62761 10.0557 3.2235 8.92672 3.22332 7.76169C3.22103 7.09967 3.35024 6.44379 3.60344 5.83209C3.85665 5.2204 4.2288 4.66508 4.69832 4.19836V4.20003Z" fill="black"/>
</svg>
